<?xml version="1.0" standalone="no"?><!DOCTYPE svg PUBLIC "-//W3C//DTD SVG 1.1//EN" "http://www.w3.org/Graphics/SVG/1.1/DTD/svg11.dtd"><svg t="1547658725058" class="icon" style="" viewBox="0 0 1365 1024" version="1.1" xmlns="http://www.w3.org/2000/svg" p-id="18613" xmlns:xlink="http://www.w3.org/1999/xlink" width="266.6015625" height="200"><defs><style type="text/css"></style></defs><path d="M893.86662578 1089.45056949c-105.5370283 0-210.78804785-14.30040978-288.29627243-38.89711667-87.80452004-28.0288037-138.14196389-68.35596086-145.86418546-117.26336422h-2.86008262c-104.96501245 0-207.64195812-15.44444316-281.71808257-42.61522226-86.94649543-31.74691093-132.99381616-77.22221583-132.99381618-131.84978443V108.44241965c0.28600878-54.34155985 46.04732073-99.81686473 132.99381618-131.56377401 74.36213319-27.17077907 177.03908057-42.61522225 281.71808257-42.61522389 104.96501245 0 207.64195812 15.44444316 282.00409302 42.61522389C825.79667202 8.91156372 871.84399442 54.38686857 871.84399442 108.72842842v307.1728141c7.43621283 0 14.87242733-0.28600878 22.02263136-0.28600877 110.11316018 0 217.93825358 16.01645902 296.01849404 43.75925566 91.23661852 32.31892681 139.57200435 78.93826508 139.57200434 134.70986536v325.76334865c0 54.91357571-50.90946137 100.38888058-147.00821715 130.99175817-77.79423168 24.59670524-183.0452529 38.61110791-288.58228123 38.6111079z m-349.78803634-169.60286607c0 5.72016357 20.02057503 27.45678784 84.65842865 48.62139461 49.19341213 16.30246778 135.28188125 35.4650182 264.84359894 35.46501819s215.65018847-19.16255042 265.12960769-35.46501819c64.6378553-21.16460674 84.65842865-43.18723979 84.65843033-48.62139461v-48.62139624c-17.73250827 8.86625497-38.32509916 17.16049241-61.20575681 24.59670688-77.50822461 24.59670524-182.75924414 38.89711667-288.58228121 38.89711502-105.5370283 0-210.78804785-14.30040978-288.29627245-38.89711502-22.88065598-7.43621283-43.47324687-15.44444316-61.20575514-24.59670688v48.62139624z m0-155.30245628c0 5.72016357 20.02057503 27.45678784 84.65842865 48.6213946 49.19341213 16.30246778 135.28188125 35.4650182 264.84359894 35.4650182s215.65018847-19.16255042 265.12960769-35.4650182c64.6378553-21.16460674 84.65842865-43.18723979 84.65843033-48.6213946v-59.48970756c-78.93826508 42.04320639-208.21397397 66.92592039-349.78803802 66.92592039s-270.56376417-24.88271399-349.78803634-66.92592039v59.48970756z m-416.42794964-5.72016523c0 9.72427961 23.16666475 33.17695143 85.23044618 54.05555107 66.06789578 22.30864012 152.72838242 34.60699357 243.96499929 34.60699359h1.71604923v-74.93415075h-1.71604923c-132.13579152 0-253.68927886-23.45267351-329.19544547-63.4938219v49.76542799z m0-160.73661112c0 9.72427961 23.16666475 33.17695143 85.23044618 54.0555511 66.06789578 22.30864012 152.72838242 34.60699357 243.96499929 34.60699188h1.71604923V612.10287182h-2.00205631c-131.84978277 0-253.40327178-23.45267351-328.90943839-63.49382192v49.47942089z m417.28597426-7.43621447c-0.57201585 1.43004048-0.85802462 2.57407386-0.85802462 3.14609138 0 10.29629546 24.59670524 34.89300067 90.95060976 56.62962495 70.0720101 23.16666475 162.16665326 36.03703405 258.83742658 36.03703405s188.47940772-12.87036929 258.8374266-36.03703405c66.35390454-22.02263137 90.95060975-46.33332948 90.95060976-56.62962495 0-10.29629546-24.59670524-34.89300067-90.95060976-56.62962495-70.0720101-23.16666475-162.16665326-36.03703405-258.8374266-36.03703407s-188.47940772 12.87036929-258.83742658 36.03703407c-52.91151772 17.44650117-80.36830556 37.18106743-88.37653589 50.05143507-0.57201585 1.43004048-1.14403339 2.57407386-1.71604925 3.4320985zM127.6506398 437.63786681c0 9.72427961 23.16666475 33.17695143 85.23044618 54.05555107 66.06789578 22.30864012 152.72838242 34.60699357 243.96499929 34.6069919l18.59053453 0.28600877h10.01028669c47.47736289-54.05555109 156.44648967-92.38065023 300.30861713-105.82303707v-32.89094265c-16.01645902 8.29423743-34.03497605 16.01645902-54.34155983 23.16666473-74.07612611 25.45472986-174.17899793 40.32715715-274.8538856 40.32715715-132.13579152 0-253.68927886-23.45267351-329.19544716-63.49382188v49.4794192l0.28600877 0.28600878z m0-160.7366128c0 9.72427961 23.16666475 33.17695143 85.23044618 54.05555109 66.06789578 22.30864012 152.72838242 34.60699357 243.96499929 34.60699357s177.89710518-12.29835345 243.96500093-34.60699357c62.06378142-20.87859965 85.23044618-44.33127149 85.23044619-54.05555109v-56.91563369C710.5353658 259.74076161 588.98187679 283.19343514 456.84608527 283.19343514c-132.13579152 0-253.68927886-23.45267351-329.19544547-63.49382191v57.20164078zM456.84608527 20.06588378c-91.23661852 0-177.89710518 12.29835345-243.96499929 34.60699356-62.06378142 21.16460674-85.23044618 44.33127149-85.23044618 54.05555108 0 9.72427961 23.16666475 33.17695143 85.23044618 54.05555108 66.06789578 22.30864012 152.72838242 34.60699357 243.96499929 34.6069936s177.89710518-12.29835345 243.96500093-34.6069936c62.06378142-20.87859965 85.23044618-44.33127149 85.23044619-54.05555108 0-9.72427961-23.16666475-33.17695143-85.23044619-54.05555108C634.74319046 32.36423724 548.0827038 20.06588378 456.84608527 20.06588378z" p-id="18614"></path></svg>