<?xml version="1.0" standalone="no"?><!DOCTYPE svg PUBLIC "-//W3C//DTD SVG 1.1//EN" "http://www.w3.org/Graphics/SVG/1.1/DTD/svg11.dtd"><svg class="icon" width="200px" height="200.00px" viewBox="0 0 1024 1024" version="1.1" xmlns="http://www.w3.org/2000/svg"><path fill="#333333" d="M859.019728 595.275756a249.15388 249.15388 0 0 0-146.798772-134.677773 303.922841 303.922841 0 0 0 84.846997-78.562034 175.978957 175.978957 0 0 0-19.303814-171.489697 249.602806 249.602806 0 0 0-158.470847-78.562035V0H540.731258v124.352477h-134.677773V0H327.042525v134.677773H152.859272v60.604998h52.973258c66.441035 0 77.215256 14.365629 77.215256 14.365629v607.845682c0 28.731258-89.785182 35.016221-89.785182 35.01622s-30.975888-7.182815-31.873739 22.895222a29.62911 29.62911 0 0 0 21.997369 33.669443h142.758439v114.925033h79.908812V906.830338h134.677773v117.169662h79.459886v-123.454625A369.466024 369.466024 0 0 0 781.355546 835.900044a214.586585 214.586585 0 0 0 76.317404-240.624288z m-432.315651-404.033318s166.102587-17.50811 221.7694 44.89259 0 179.570364-52.075406 198.874178a214.586585 214.586585 0 0 1-92.927663 17.508111H426.704077z m294.495397 489.329241a160.715476 160.715476 0 0 1-147.247698 161.613328c-86.642701 4.489259-134.677773-20.201666-147.247699-44.892591v-275.191583a731.300307 731.300307 0 0 1 174.183253 5.387111 148.594476 148.594476 0 0 1 120.312144 151.736957z"  /></svg>