<?xml version="1.0" standalone="no"?><!DOCTYPE svg PUBLIC "-//W3C//DTD SVG 1.1//EN" "http://www.w3.org/Graphics/SVG/1.1/DTD/svg11.dtd"><svg class="icon" width="200px" height="199.80px" viewBox="0 0 1025 1024" version="1.1" xmlns="http://www.w3.org/2000/svg"><path fill="#333333" d="M501.76 455.68l5.12-5.12c1.706667-1.706667 3.413333-3.413333 3.413333-5.12 5.12-5.12 11.946667-11.946667 18.773334-17.066667 1.706667-1.706667 3.413333-1.706667 3.413333-3.413333l1.706667-1.706667c1.706667-1.706667 3.413333-1.706667 3.413333-3.413333h1.706667c5.12-3.413333 8.533333-6.826667 13.653333-10.24 0 0 1.706667 0 1.706667-1.706667l3.413333-3.413333 1.706667-1.706667c1.706667 0 1.706667-1.706667 3.413333-1.706666l1.706667-1.706667c1.706667 0 1.706667-1.706667 3.413333-1.706667l1.706667-1.706666 10.24-5.12v-44.373334c0-30.72-23.893333-54.613333-54.613334-54.613333h-471.04c-30.72 0-54.613333 23.893333-54.613333 54.613333v54.613334c0 30.72 23.893333 54.613333 54.613333 54.613333h447.146667zM58.026667 566.613333v54.613334c0 30.72 23.893333 54.613333 54.613333 54.613333h303.786667v-6.826667-10.24-8.533333-6.826667c0-3.413333 0-5.12 1.706666-8.533333 0-1.706667 0-5.12 1.706667-6.826667v-1.706666c0-1.706667 0-3.413333 1.706667-5.12v-1.706667c0-1.706667 0-5.12 1.706666-6.826667v-1.706666c0-1.706667 0-3.413333 1.706667-5.12v-1.706667c0-1.706667 1.706667-3.413333 1.706667-6.826667v-1.706666c0-1.706667 1.706667-3.413333 1.706666-5.12v-1.706667c0-1.706667 1.706667-3.413333 1.706667-6.826667v-1.706666c0-1.706667 1.706667-3.413333 1.706667-5.12v-1.706667c0-1.706667 1.706667-3.413333 1.706666-5.12 0 0 0-1.706667 1.706667-1.706667 0-1.706667 1.706667-3.413333 1.706667-3.413333s0-1.706667 1.706666-1.706667c0-1.706667 1.706667-3.413333 1.706667-5.12 0-1.706667 0-1.706667 1.706667-3.413333 0-1.706667 1.706667-1.706667 1.706666-3.413333s0-1.706667 1.706667-3.413334c0-1.706667 1.706667-3.413333 1.706667-5.12 0-1.706667 1.706667-1.706667 1.706666-3.413333s1.706667-1.706667 1.706667-3.413333 1.706667-1.706667 1.706667-3.413334c1.706667-1.706667 1.706667-3.413333 3.413333-5.12 0-1.706667 1.706667-1.706667 1.706667-3.413333s1.706667-1.706667 1.706666-3.413333 1.706667-1.706667 1.706667-3.413334h-348.16c-30.72-3.413333-54.613333 20.48-54.613333 51.2zM112.64 235.52h750.933333c30.72 0 54.613333-23.893333 54.613334-54.613333v-54.613334c0-30.72-23.893333-54.613333-54.613334-54.613333h-750.933333c-30.72 0-54.613333 23.893333-54.613333 54.613333v54.613334c0 29.013333 23.893333 54.613333 54.613333 54.613333zM85.333333 733.866667c-30.72 0-54.613333 23.893333-54.613333 54.613333v54.613333c0 30.72 23.893333 54.613333 54.613333 54.613334h416.426667c-40.96-46.08-69.973333-102.4-80.213333-165.546667l-336.213334 1.706667zM749.226667 401.066667c-151.893333 0-276.48 124.586667-276.48 276.48 0 151.893333 124.586667 276.48 276.48 276.48 151.893333 0 276.48-124.586667 276.48-276.48 0-151.893333-124.586667-276.48-276.48-276.48z m104.106666 203.093333c15.36 0 25.6 11.946667 25.6 25.6 0 15.36-11.946667 25.6-25.6 25.6h-78.506666v30.72h78.506666c15.36 0 25.6 11.946667 25.6 25.6 0 15.36-11.946667 25.6-25.6 25.6h-78.506666v88.746667c0 15.36-11.946667 25.6-25.6 25.6-15.36 0-25.6-11.946667-25.6-25.6v-88.746667h-78.506667c-15.36 0-25.6-11.946667-25.6-25.6 0-15.36 11.946667-25.6 25.6-25.6h78.506667v-30.72h-78.506667c-15.36 0-25.6-11.946667-25.6-25.6 0-15.36 11.946667-25.6 25.6-25.6h39.253333l-58.026666-58.026667c-10.24-10.24-10.24-27.306667 0-37.546666s27.306667-10.24 37.546666 0l80.213334 80.213333 1.706666 1.706667c1.706667 0 3.413333-1.706667 5.12-1.706667s3.413333 0 5.12 1.706667c0-1.706667 1.706667-1.706667 1.706667-3.413334l80.213333-80.213333c10.24-10.24 27.306667-10.24 37.546667 0s10.24 27.306667 0 37.546667l-58.026667 58.026666 35.84 1.706667z" /></svg>