<?xml version="1.0" standalone="no"?><!DOCTYPE svg PUBLIC "-//W3C//DTD SVG 1.1//EN" "http://www.w3.org/Graphics/SVG/1.1/DTD/svg11.dtd"><svg class="icon" width="200px" height="200.00px" viewBox="0 0 1024 1024" version="1.1" xmlns="http://www.w3.org/2000/svg"><path fill="#333333" d="M89.40012758 807.92754669v141.09382836h845.19974484v-141.09382836c-62.57204562-77.09039608-174.01572165-135.1637979-308.56606813-156.43011407-0.06816127-3.13541841-0.40896762-5.99819174-0.40896763-9.20177142 0-13.29144761 0.88609651-39.80618153 6.88428825-72.59175227C702.85155528 522.26366519 750.56444412 435.69885261 750.56444412 335.56994736c0-150.56824487-106.80870969-272.64507898-238.56444412-272.64507897s-238.56444412 122.07683411-238.56444412 272.64507897c0 100.12890525 47.71288882 186.69371783 118.12348048 234.13396157 5.93003046 32.78557074 6.81612697 59.30030468 6.81612698 72.59175227 0 3.20357968-0.34080635 6.06635301-0.40896763 9.20177142-134.55034647 21.26631616-245.99402251 79.33971798-308.56606813 156.43011407z" /></svg>