<?xml version="1.0" standalone="no"?><!DOCTYPE svg PUBLIC "-//W3C//DTD SVG 1.1//EN" "http://www.w3.org/Graphics/SVG/1.1/DTD/svg11.dtd"><svg class="icon" width="200px" height="200.00px" viewBox="0 0 1024 1024" version="1.1" xmlns="http://www.w3.org/2000/svg"><path fill="#333333" d="M236.145778 790.983111v-46.136889h127.146666v-34.190222h46.108445v34.190222h230.229333v-34.190222h46.136889v34.190222h127.118222v46.136889H236.145778zM781.653333 399.388444v46.108445h-138.268444v-46.108445h138.268444z m0 263.850667h-138.268444v-46.136889h138.268444v46.136889z m-178.232889-154.993778h178.232889v46.136889h-178.232889v-46.136889z m-6.001777 188.017778h-46.108445a121.287111 121.287111 0 0 0-121.116444-121.116444 121.287111 121.287111 0 0 0-121.144889 121.116444H262.940444a167.310222 167.310222 0 0 1 98.446223-152.263111 116.366222 116.366222 0 0 1-47.985778-93.895111 116.906667 116.906667 0 0 1 116.792889-116.792889 116.906667 116.906667 0 0 1 116.764444 116.792889 116.366222 116.366222 0 0 1-47.985778 93.895111 167.310222 167.310222 0 0 1 98.446223 152.263111z m-96.568889-246.158222a70.769778 70.769778 0 0 0-70.656-70.656 70.741333 70.741333 0 0 0-70.656 70.656 70.741333 70.741333 0 0 0 70.656 70.656 70.769778 70.769778 0 0 0 70.656-70.656zM236.145778 261.660444h576.739555v46.136889H236.145778V261.660444z"  /></svg>