<?xml version="1.0" standalone="no"?><!DOCTYPE svg PUBLIC "-//W3C//DTD SVG 1.1//EN" "http://www.w3.org/Graphics/SVG/1.1/DTD/svg11.dtd"><svg class="icon" width="200px" height="199.22px" viewBox="0 0 1028 1024" version="1.1" xmlns="http://www.w3.org/2000/svg"><path fill="#333333" d="M641.282565 0a384.769539 384.769539 0 0 0-331.41483 190.845691 388.873747 388.873747 0 0 0-4.873747 384.769539L30.268537 851.623246A100.296593 100.296593 0 0 0 0 920.625251v5.13026a102.60521 102.60521 0 0 0 3.078156 23.342685 99.270541 99.270541 0 0 0 167.759519 44.376754l56.176353-56.689379 18.981964 18.981964a74.132265 74.132265 0 0 0 115.174349-12.056112A76.953908 76.953908 0 0 0 348.857715 846.492986l-15.390781-15.903808L443.511022 718.236473A378.613226 378.613226 0 0 0 641.282565 774.669339 387.334669 387.334669 0 0 0 641.282565 0z m0 538.677355a150.829659 150.829659 0 1 1 149.803607-150.82966A150.316633 150.316633 0 0 1 641.282565 538.677355z" /></svg>