<?xml version="1.0" standalone="no"?><!DOCTYPE svg PUBLIC "-//W3C//DTD SVG 1.1//EN" "http://www.w3.org/Graphics/SVG/1.1/DTD/svg11.dtd"><svg class="icon" width="200px" height="200.00px" viewBox="0 0 1024 1024" version="1.1" xmlns="http://www.w3.org/2000/svg"><path fill="#333333" d="M939.2 875.648c-13.824 19.648-29.12 36.992-47.872 51.648-33.856 26.368-72.448 43.968-113.024 57.536-34.624 11.584-69.888 20.416-106.112 25.536-21.056 2.944-42.112 6.08-63.232 8.256-18.304 1.92-36.672 3.008-54.976 3.648-23.424 0.896-46.848 1.664-70.272 1.152-22.272-0.576-44.352-2.688-66.56-4.672-17.216-1.472-34.496-3.072-51.456-6.144-28.608-5.248-57.216-11.008-85.504-17.792-32.192-7.68-63.104-19.328-92.672-33.856-24.256-11.968-46.976-26.24-66.88-44.608-28.096-25.856-47.168-57.472-62.784-91.584-13.888-30.144-24.448-61.376-32-93.44-5.632-24.128-10.432-48.512-14.272-72.96-3.456-21.76-5.44-43.84-7.552-65.792C2.624 577.984 1.92 563.392 1.408 548.8c-0.64-18.88-1.472-37.76-1.088-56.704 0.512-23.552 1.472-47.168 3.712-70.656C8.64 373.76 16 326.464 28.672 280.128 36.8 250.432 46.976 221.376 60.16 193.344 71.232 169.92 84.352 147.84 100.8 127.68 117.76 106.88 138.88 90.432 161.984 76.608c30.144-18.048 62.528-31.232 96.128-41.6 32.32-9.92 65.152-17.856 98.752-22.592 18.432-2.624 36.992-5.248 55.488-7.104 17.472-1.728 35.008-3.136 52.544-3.648 28.736-0.832 57.536-1.728 86.336-1.024C575.296 1.344 599.168 4.224 623.168 6.4c40.896 3.712 81.024 11.52 120.64 22.016 27.008 7.104 53.376 16.128 78.848 27.648 21.76 9.728 42.432 20.992 61.632 35.008 26.368 19.2 47.168 43.072 63.616 70.912 17.984 30.528 31.808 62.656 41.408 96.384 7.68 27.072 13.952 54.592 19.648 82.048 4.288 20.608 7.04 41.536 9.856 62.4 1.536 11.712 2.24 23.488 2.56 35.264 1.088 36.288 2.496 72.64 2.304 108.992-0.128 21.696-3.008 43.392-4.608 65.152-0.064 1.216-0.064 2.368-0.064 3.584-0.064 9.536-0.128 9.728-9.152 7.808-40.512-8.832-79.936-21.056-117.696-37.632-42.944-18.816-84.928-39.488-127.232-59.584-15.168-7.232-31.168-12.608-47.872-12.224-15.04 0.384-30.336 3.072-45.12 6.4C635.712 528.512 599.68 538.176 563.264 545.92 526.08 553.792 488.448 560.192 451.008 566.784 436.032 569.408 420.8 571.072 405.696 572.8c-6.848 0.896-10.56 5.248-11.776 14.72-4.032 32.256 20.032 62.016 49.152 70.848 9.856 3.008 20.8 3.584 31.296 3.968 18.048 0.64 36.224 0.768 54.4 0 21.824-0.96 43.584-2.88 65.344-4.544 13.824-1.152 27.648-2.432 41.344-3.776 7.872-0.704 15.808-1.472 23.68-2.368 14.656-1.728 15.936 7.296 13.056 18.304-3.648 13.248-13.12 22.272-24.128 29.76-25.024 17.024-53.184 27.136-81.856 36.096-16.768 5.248-33.6 11.072-50.944 13.312-18.624 2.496-37.888 1.92-56.832 1.152-14.528-0.64-28.864-3.84-43.392-5.76-19.648-2.688-37.248-9.92-54.528-19.264-21.952-11.84-44.416-22.784-67.392-32.512-29.184-12.288-58.944-23.488-88.768-34.24-15.552-5.568-31.808-9.856-48.704-9.536-31.744 0.576-47.296 21.632-45.76 49.28 0.128 1.984 2.496 4.416 4.416 5.696 33.536 21.376 67.008 42.944 100.928 63.808 34.56 21.248 69.696 41.664 104.32 62.848 16.192 9.856 31.744 20.928 47.744 31.04 25.024 15.936 50.112 31.808 79.104 40.384 16.256 4.8 32.832 6.528 49.472 3.456 49.024-9.088 97.856-18.368 146.752-27.776 28.864-5.504 57.472-11.648 86.464-16.704 22.592-4.032 45.44-6.4 68.032-10.112 22.656-3.712 44.096 1.6 65.728 6.336 24.128 5.248 48.064 11.136 72.064 16.832C936.32 874.368 937.408 875.008 939.2 875.648L939.2 875.648 939.2 875.648zM420.672 352.96c-61.76 0-123.52 0-185.28 0.128-4.992 0-10.112 0.832-14.912 2.176C192.704 363.136 182.912 393.728 192.896 417.792 200.96 437.056 217.088 444.928 237.44 444.992c113.216 0.128 226.368 0.064 339.584 0 12.032-0.064 24.128-0.448 36.16-1.28 11.072-0.768 19.968-6.4 26.88-14.592 9.216-10.88 11.648-23.488 9.92-37.376-1.408-11.648-6.656-21.248-15.488-28.8C625.664 355.52 614.912 352.96 603.456 352.96 542.528 353.024 481.536 352.96 420.672 352.96L420.672 352.96 420.672 352.96zM420.032 168.064c-61.184 0-122.368 0-183.488 0.128-4.672 0-9.408 0.384-13.952 1.472C192.704 177.344 182.784 208.448 192.96 233.152c7.936 19.2 24 26.944 44.096 26.944 116.736 0.192 233.472 0.128 350.208 0.064 8.384 0 16.768-0.448 25.152-1.216 14.464-1.28 25.024-8.832 32.128-20.8 5.504-9.536 6.976-20.032 5.504-30.976C648.32 194.944 643.2 184.96 633.152 177.28 624.32 170.56 614.208 168.192 603.52 168.192 542.336 168 481.216 168.064 420.032 168.064L420.032 168.064 420.032 168.064z" /></svg>