<?xml version="1.0" standalone="no"?><!DOCTYPE svg PUBLIC "-//W3C//DTD SVG 1.1//EN" "http://www.w3.org/Graphics/SVG/1.1/DTD/svg11.dtd"><svg class="icon" width="200px" height="200.00px" viewBox="0 0 1024 1024" version="1.1" xmlns="http://www.w3.org/2000/svg"><path fill="#333333" d="M582.144 423.424c-30.72 12.8-58.88 29.696-84.48 50.688-25.6 20.992-48.128 45.056-66.56 72.704-18.944 27.136-33.28 56.832-43.52 89.088-10.24 32.256-15.36 66.048-15.36 101.888 0 31.232 4.096 61.44 12.288 90.112 8.192 28.672 19.456 55.808 33.792 80.896h-24.576c-17.408 0-37.888-0.512-60.928-2.048-23.04-1.024-47.104-3.072-72.192-5.12-24.576-2.048-49.152-4.608-73.728-7.168-24.576-2.56-46.592-5.632-66.56-8.704-19.968-3.072-36.864-6.144-50.688-9.216-13.824-3.072-22.528-6.144-26.112-9.216-6.656-4.608-11.776-19.968-14.848-45.056-3.072-25.088-2.048-57.344 4.096-96.256 2.56-15.36 7.168-27.648 14.848-37.376 7.68-9.728 16.896-17.92 27.648-25.088 10.752-7.168 23.04-12.288 36.352-16.896 13.312-4.096 27.136-8.192 40.96-12.288 13.824-4.096 27.136-8.192 40.448-12.8 12.8-4.608 25.088-10.24 35.84-16.896 12.8-7.68 22.528-15.36 29.696-23.04 7.168-7.68 11.776-14.848 14.848-22.016 3.072-7.168 4.608-14.848 4.608-22.528 0-7.68-0.512-16.384-1.024-26.112-1.024-13.824-6.144-25.088-14.336-33.28-8.704-8.192-17.92-16.384-28.16-25.088-4.608-4.096-9.216-10.24-13.312-17.92s-7.168-15.36-10.24-23.04c-3.072-9.216-6.144-18.944-9.216-28.16-4.096-1.024-8.704-3.072-12.8-6.144-3.584-3.072-7.68-7.168-11.776-12.8-4.096-5.632-7.68-13.312-10.752-23.552-3.072-10.24-4.096-19.456-3.584-28.16 0.512-8.704 2.56-15.872 5.632-22.528 2.56-6.656 6.144-12.8 11.776-18.944 0-23.04 1.024-46.08 3.584-69.12 1.536-17.92 5.632-38.4 11.776-60.928 6.144-22.528 15.36-42.496 28.16-59.904 12.288-16.896 25.088-30.72 38.912-41.472 13.824-10.24 28.16-18.432 43.52-24.576 14.848-6.144 30.208-10.24 45.056-12.288 14.336-2.048 28.672-3.072 42.496-3.072 17.408 0 34.816 2.048 52.224 6.144 17.408 4.096 33.28 9.216 48.64 15.872s28.672 14.336 40.448 22.528c11.776 8.704 20.992 16.896 27.648 25.6 15.872 19.456 27.136 40.448 34.304 64 7.168 23.04 12.288 45.568 15.36 66.56 3.072 24.064 4.608 48.64 4.608 73.216 4.096 3.072 7.68 7.168 9.728 11.776 2.56 4.096 4.608 9.728 6.144 16.384 1.536 6.656 1.536 14.848 0.512 24.576-1.024 13.312-3.584 23.552-7.68 31.232s-8.192 13.312-13.312 17.92c-5.632 4.608-11.264 8.192-17.408 9.728-1.536 4.096-2.56 7.68-3.584 11.776l-4.608 12.8c-1.024 3.584-2.56 8.192-4.608 13.312z m129.536 28.672c39.424 0 76.288 7.68 111.104 22.528 34.816 15.36 65.024 35.84 90.624 61.44 25.6 26.112 46.08 56.32 60.928 91.136 15.36 34.816 22.528 71.68 22.528 111.104 0 39.424-7.68 76.288-22.528 111.104-14.848 34.816-35.328 65.024-60.928 91.136-25.6 26.112-55.808 46.592-90.624 60.928-34.816 14.848-71.68 22.016-111.104 22.016-39.936 0-77.312-7.168-112.128-22.016-34.816-14.848-65.024-35.328-90.624-60.928-25.6-26.112-46.08-56.32-60.928-91.136-15.36-34.816-22.528-71.68-22.528-111.104 0-39.424 7.68-76.288 22.528-111.104 14.848-34.816 35.328-65.024 60.928-91.136 25.6-26.112 55.808-46.592 90.624-61.44 35.328-14.848 72.704-22.528 112.128-22.528z m166.912 230.4c3.584-12.288 2.048-23.04-5.12-33.28-7.168-9.728-16.384-16.896-27.648-21.504-11.264-4.096-23.04-4.608-34.304-1.024s-19.968 12.8-25.6 28.16c-2.56 9.728-5.632 18.944-8.704 28.672-3.072 9.216-5.632 18.432-8.192 27.648-2.56 9.728-6.144 19.968-9.728 31.232-4.096 11.264-8.704 24.064-14.848 38.4-6.144 15.872-14.848 23.04-25.6 22.016-11.264-1.024-19.968-7.168-25.6-19.456-6.656-12.288-12.8-25.088-18.432-38.912-5.632-13.824-11.264-27.648-16.896-40.96-5.12-12.288-9.728-24.064-14.336-36.352-4.096-10.752-7.68-19.456-10.752-26.112-4.608-9.728-12.8-14.848-24.064-16.384-11.264-1.024-22.016 0.512-32.768 5.12-10.752 4.608-19.456 11.776-26.112 21.504-7.168 9.728-8.192 20.48-3.072 31.744 4.608 13.824 9.728 27.136 14.336 40.96 5.632 15.36 11.264 30.72 17.408 46.08 6.144 15.36 11.776 30.72 17.408 46.08 5.632 14.848 10.24 28.16 14.336 38.912 9.216 23.04 23.04 39.936 41.472 51.712 18.432 11.264 37.888 17.408 57.856 17.92 20.48 0.512 39.424-4.096 57.856-13.824 18.432-9.728 31.744-24.064 40.448-43.52 7.168-16.384 13.824-32.768 20.48-49.152 6.656-16.896 13.312-33.28 19.968-50.176 6.144-16.384 12.288-32.256 17.92-47.104 4.096-14.848 8.704-27.648 12.288-38.4z"  /></svg>